<svg width="153" height="153" viewBox="0 0 153 153" fill="none" xmlns="http://www.w3.org/2000/svg">
<path d="M130.923 78.0955C131.194 69.137 129.251 60.25 125.267 52.2216C121.283 44.1933 115.381 37.2714 108.082 32.0691C100.784 26.8668 92.3155 23.5447 83.4267 22.397C74.5379 21.2494 65.5033 22.3116 57.1231 25.4896C48.7428 28.6676 41.2757 33.8633 35.3831 40.6165C29.4905 47.3697 25.3544 55.4718 23.341 64.2053C21.3276 72.9388 21.4992 82.0341 23.8405 90.6855C26.1818 99.3368 30.6205 107.277 36.7636 113.803L76.448 76.4484L130.923 78.0955Z" fill="url(#paint0_linear)"/>
<path d="M34.3237 70.4478C34.2407 71.5952 33.8159 72.4985 33.0493 73.1577C32.2876 73.8169 31.2817 74.1465 30.0317 74.1465C28.6645 74.1465 27.5879 73.6875 26.8017 72.7695C26.0205 71.8467 25.6299 70.582 25.6299 68.9756V68.3237C25.6299 67.2983 25.8105 66.395 26.1719 65.6138C26.5332 64.8325 27.0483 64.2344 27.7173 63.8193C28.3911 63.3994 29.1723 63.1895 30.061 63.1895C31.2915 63.1895 32.2827 63.519 33.0347 64.1782C33.7866 64.8374 34.2212 65.7627 34.3384 66.9541H32.1411C32.0874 66.2656 31.8945 65.7676 31.5625 65.46C31.2353 65.1475 30.7348 64.9912 30.061 64.9912C29.3286 64.9912 28.7793 65.2549 28.4131 65.7822C28.0517 66.3047 27.8662 67.1177 27.8564 68.2212V69.0269C27.8564 70.1792 28.0298 71.0215 28.3764 71.5537C28.728 72.0859 29.2798 72.3521 30.0317 72.3521C30.7104 72.3521 31.2158 72.1982 31.5478 71.8906C31.8848 71.5781 32.0776 71.0972 32.1264 70.4478H34.3237ZM44.0764 68.9097C44.0764 69.9595 43.8908 70.8799 43.5197 71.6709C43.1486 72.4619 42.6164 73.0723 41.923 73.502C41.2346 73.9316 40.4435 74.1465 39.55 74.1465C38.6662 74.1465 37.8776 73.9341 37.1843 73.5093C36.4909 73.0845 35.9538 72.479 35.5729 71.6929C35.1921 70.9019 34.9992 69.9937 34.9943 68.9683V68.4409C34.9943 67.3911 35.1823 66.4683 35.5583 65.6724C35.9391 64.8716 36.4738 64.2588 37.1623 63.834C37.8556 63.4043 38.6467 63.1895 39.5353 63.1895C40.424 63.1895 41.2126 63.4043 41.9011 63.834C42.5944 64.2588 43.1291 64.8716 43.5051 65.6724C43.8859 66.4683 44.0764 67.3887 44.0764 68.4336V68.9097ZM41.8498 68.4263C41.8498 67.3081 41.6496 66.4585 41.2492 65.8774C40.8488 65.2964 40.2775 65.0059 39.5353 65.0059C38.798 65.0059 38.2292 65.2939 37.8288 65.8701C37.4284 66.4414 37.2258 67.2812 37.2209 68.3896V68.9097C37.2209 69.9985 37.4211 70.8433 37.8215 71.4438C38.2219 72.0444 38.798 72.3447 39.55 72.3447C40.2873 72.3447 40.8537 72.0566 41.2492 71.4805C41.6447 70.8994 41.8449 70.0547 41.8498 68.9463V68.4263ZM53.8949 74H51.6976L47.4203 66.9834V74H45.223V63.3359H47.4203L51.705 70.3672V63.3359H53.8949V74ZM59.3043 71.356L61.7213 63.3359H64.1676L60.4542 74H58.1617L54.463 63.3359H56.9019L59.3043 71.356ZM71.1443 69.3784H66.9256V72.2349H71.8767V74H64.7283V63.3359H71.8621V65.1157H66.9256V67.6572H71.1443V69.3784ZM76.6636 70.0962H74.9131V74H72.7158V63.3359H76.6782C77.938 63.3359 78.9097 63.6167 79.5932 64.1782C80.2768 64.7397 80.6186 65.5332 80.6186 66.5586C80.6186 67.2861 80.4599 67.894 80.1426 68.3823C79.8301 68.8657 79.354 69.2515 78.7143 69.5396L81.0215 73.8975V74H78.6631L76.6636 70.0962ZM74.9131 68.3164H76.6855C77.2373 68.3164 77.6645 68.1772 77.9673 67.8989C78.27 67.6157 78.4214 67.2275 78.4214 66.7344C78.4214 66.2314 78.2773 65.8359 77.9892 65.5479C77.706 65.2598 77.269 65.1157 76.6782 65.1157H74.9131V68.3164ZM90.2834 72.6523C89.8879 73.126 89.3288 73.4946 88.6061 73.7583C87.8835 74.0171 87.0827 74.1465 86.2038 74.1465C85.2809 74.1465 84.4704 73.9463 83.7722 73.5459C83.0788 73.1406 82.5417 72.5547 82.1608 71.7881C81.7848 71.0215 81.592 70.1206 81.5822 69.0854V68.3604C81.5822 67.2959 81.7604 66.3755 82.1169 65.5991C82.4782 64.8179 82.9958 64.2222 83.6696 63.812C84.3483 63.397 85.1418 63.1895 86.05 63.1895C87.3146 63.1895 88.3034 63.4922 89.0163 64.0977C89.7292 64.6982 90.1515 65.5747 90.2834 66.7271H88.1447C88.0471 66.1167 87.8298 65.6699 87.4929 65.3867C87.1608 65.1035 86.7018 64.9619 86.1159 64.9619C85.3688 64.9619 84.8 65.2427 84.4094 65.8042C84.0187 66.3657 83.821 67.2007 83.8161 68.3091V68.9902C83.8161 70.1084 84.0285 70.9531 84.4533 71.5244C84.8781 72.0957 85.5007 72.3813 86.321 72.3813C87.1462 72.3813 87.7346 72.2056 88.0861 71.854V70.0156H86.0866V68.397H90.2834V72.6523ZM98.0365 69.3784H93.8178V72.2349H98.7689V74H91.6205V63.3359H98.7543V65.1157H93.8178V67.6572H98.0365V69.3784ZM108.28 74H106.083L101.805 66.9834V74H99.608V63.3359H101.805L106.09 70.3672V63.3359H108.28V74ZM118.12 70.4478C118.037 71.5952 117.613 72.4985 116.846 73.1577C116.084 73.8169 115.078 74.1465 113.828 74.1465C112.461 74.1465 111.385 73.6875 110.598 72.7695C109.817 71.8467 109.427 70.582 109.427 68.9756V68.3237C109.427 67.2983 109.607 66.395 109.969 65.6138C110.33 64.8325 110.845 64.2344 111.514 63.8193C112.188 63.3994 112.969 63.1895 113.858 63.1895C115.088 63.1895 116.079 63.519 116.831 64.1782C117.583 64.8374 118.018 65.7627 118.135 66.9541H115.938C115.884 66.2656 115.691 65.7676 115.359 65.46C115.032 65.1475 114.532 64.9912 113.858 64.9912C113.125 64.9912 112.576 65.2549 112.21 65.7822C111.848 66.3047 111.663 67.1177 111.653 68.2212V69.0269C111.653 70.1792 111.826 71.0215 112.173 71.5537C112.525 72.0859 113.076 72.3521 113.828 72.3521C114.507 72.3521 115.012 72.1982 115.345 71.8906C115.681 71.5781 115.874 71.0972 115.923 70.4478H118.12ZM125.529 69.3784H121.311V72.2349H126.262V74H119.113V63.3359H126.247V65.1157H121.311V67.6572H125.529V69.3784Z" fill="white"/>
<path d="M84.4413 90.0928H77.8778V97H75.8153V81.3594H85.5047V83.0566H77.8778V88.4063H84.4413V90.0928ZM100.007 89.6846C100.007 91.2171 99.7489 92.5563 99.2333 93.7022C98.7176 94.8408 97.9872 95.7109 97.0419 96.3125C96.0965 96.9141 94.9937 97.2149 93.7333 97.2149C92.5015 97.2149 91.4094 96.9141 90.4569 96.3125C89.5044 95.7038 88.7632 94.8408 88.2333 93.7236C87.7105 92.5993 87.4419 91.2995 87.4276 89.8242V88.6963C87.4276 87.1924 87.689 85.8639 88.2118 84.7109C88.7346 83.558 89.4722 82.6771 90.4247 82.0684C91.3843 81.4525 92.48 81.1445 93.7118 81.1445C94.965 81.1445 96.0679 81.4489 97.0204 82.0576C97.98 82.6592 98.7176 83.5365 99.2333 84.6895C99.7489 85.8353 100.007 87.1709 100.007 88.6963V89.6846ZM97.9549 88.6748C97.9549 86.82 97.5825 85.3984 96.8378 84.4102C96.093 83.4147 95.051 82.917 93.7118 82.917C92.4084 82.917 91.3807 83.4147 90.6288 84.4102C89.884 85.3984 89.5008 86.7734 89.4794 88.5352V89.6846C89.4794 91.4821 89.8553 92.8965 90.6073 93.9277C91.3664 94.9518 92.4084 95.4639 93.7333 95.4639C95.0653 95.4639 96.0965 94.9805 96.827 94.0137C97.5575 93.0397 97.9335 91.6468 97.9549 89.835V88.6748ZM115.132 89.6846C115.132 91.2171 114.874 92.5563 114.358 93.7022C113.843 94.8408 113.112 95.7109 112.167 96.3125C111.222 96.9141 110.119 97.2149 108.858 97.2149C107.626 97.2149 106.534 96.9141 105.582 96.3125C104.629 95.7038 103.888 94.8408 103.358 93.7236C102.835 92.5993 102.567 91.2995 102.553 89.8242V88.6963C102.553 87.1924 102.814 85.8639 103.337 84.7109C103.86 83.558 104.597 82.6771 105.55 82.0684C106.509 81.4525 107.605 81.1445 108.837 81.1445C110.09 81.1445 111.193 81.4489 112.145 82.0576C113.105 82.6592 113.843 83.5365 114.358 84.6895C114.874 85.8353 115.132 87.1709 115.132 88.6963V89.6846ZM113.08 88.6748C113.08 86.82 112.708 85.3984 111.963 84.4102C111.218 83.4147 110.176 82.917 108.837 82.917C107.533 82.917 106.506 83.4147 105.754 84.4102C105.009 85.3984 104.626 86.7734 104.604 88.5352V89.6846C104.604 91.4821 104.98 92.8965 105.732 93.9277C106.491 94.9518 107.533 95.4639 108.858 95.4639C110.19 95.4639 111.222 94.9805 111.952 94.0137C112.682 93.0397 113.058 91.6468 113.08 89.835V88.6748ZM118.225 97V81.3594H122.64C124.001 81.3594 125.204 81.6602 126.25 82.2617C127.295 82.8633 128.101 83.7191 128.667 84.8291C129.24 85.9391 129.53 87.2139 129.537 88.6533V89.6524C129.537 91.1276 129.251 92.4203 128.678 93.5303C128.112 94.6403 127.299 95.4925 126.239 96.0869C125.186 96.6813 123.958 96.9857 122.555 97H118.225ZM120.288 83.0566V95.3135H122.458C124.048 95.3135 125.283 94.8193 126.164 93.8311C127.052 92.8428 127.496 91.4356 127.496 89.6094V88.6963C127.496 86.9203 127.077 85.5417 126.239 84.5606C125.408 83.5723 124.227 83.071 122.694 83.0566H120.288Z" fill="url(#paint1_radial)"/>
<defs>
<linearGradient id="paint0_linear" x1="31.2415" y1="46.008" x2="121.655" y2="106.889" gradientUnits="userSpaceOnUse">
<stop stop-color="#FBA92F"/>
<stop offset="1" stop-color="#FD390E"/>
</linearGradient>
<radialGradient id="paint1_radial" cx="0" cy="0" r="1" gradientUnits="userSpaceOnUse" gradientTransform="translate(129 89) rotate(180) scale(55 113.402)">
<stop stop-color="#FD390E"/>
<stop offset="1" stop-color="#FBA92F"/>
</radialGradient>
</defs>
</svg>
