<svg width="159" height="53" viewBox="0 0 159 53" fill="none" xmlns="http://www.w3.org/2000/svg">
<path d="M53 26.5C53 41.1355 41.1355 53 26.5 53C11.8645 53 0 41.1355 0 26.5C0 11.8645 11.8645 0 26.5 0C41.1355 0 53 11.8645 53 26.5Z" fill="url(#paint0_radial_113:21)"/>
<g clip-path="url(#clip0_113:21)">
<path d="M39.9838 26.1882H13.6397C12.8335 26.1882 12.0604 26.5085 11.4903 27.0785C10.9203 27.6486 10.6 28.4217 10.6 29.2279C10.6 30.0341 10.9203 30.8073 11.4903 31.3773C12.0604 31.9474 12.8335 32.2676 13.6397 32.2676H39.9838C40.79 32.2676 41.5632 31.9474 42.1332 31.3773C42.7033 30.8073 43.0235 30.0341 43.0235 29.2279C43.0235 28.4217 42.7033 27.6486 42.1332 27.0785C41.5632 26.5085 40.79 26.1882 39.9838 26.1882V26.1882ZM40.9971 34.2941H12.6265C12.3577 34.2941 12.1 34.4009 11.91 34.5909C11.72 34.7809 11.6132 35.0386 11.6132 35.3073V36.3206C11.6132 37.3955 12.0402 38.4264 12.8003 39.1864C13.5604 39.9465 14.5913 40.3735 15.6662 40.3735H37.9574C39.0323 40.3735 40.0631 39.9465 40.8232 39.1864C41.5833 38.4264 42.0103 37.3955 42.0103 36.3206V35.3073C42.0103 35.0386 41.9035 34.7809 41.7135 34.5909C41.5235 34.4009 41.2658 34.2941 40.9971 34.2941ZM14.3135 24.1618H39.31C41.4992 24.1618 42.769 21.3817 41.5151 19.3565C38.9706 15.2453 33.3693 12.0093 26.8118 12.0029C20.2549 12.0093 14.6529 15.2453 12.1085 19.3559C10.8533 21.3811 12.1243 24.1618 14.3135 24.1618ZM34.9177 17.0691C35.1181 17.0691 35.3139 17.1285 35.4806 17.2399C35.6472 17.3512 35.7771 17.5094 35.8538 17.6946C35.9304 17.8797 35.9505 18.0835 35.9114 18.28C35.8723 18.4766 35.7758 18.6571 35.6341 18.7988C35.4924 18.9405 35.3119 19.037 35.1153 19.0761C34.9188 19.1152 34.715 19.0951 34.5299 19.0184C34.3448 18.9418 34.1865 18.8119 34.0752 18.6453C33.9638 18.4786 33.9044 18.2827 33.9044 18.0823C33.9044 17.8136 34.0112 17.5559 34.2012 17.3659C34.3912 17.1759 34.6489 17.0691 34.9177 17.0691V17.0691ZM26.8118 15.0426C27.0122 15.0426 27.2081 15.1021 27.3747 15.2134C27.5413 15.3247 27.6712 15.483 27.7479 15.6681C27.8246 15.8533 27.8446 16.057 27.8055 16.2535C27.7664 16.4501 27.6699 16.6306 27.5282 16.7723C27.3865 16.914 27.206 17.0105 27.0094 17.0496C26.8129 17.0887 26.6092 17.0687 26.424 16.992C26.2389 16.9153 26.0806 16.7854 25.9693 16.6188C25.858 16.4522 25.7985 16.2563 25.7985 16.0559C25.7985 15.7871 25.9053 15.5294 26.0953 15.3394C26.2853 15.1494 26.543 15.0426 26.8118 15.0426V15.0426ZM18.7059 17.0691C18.9063 17.0691 19.1022 17.1285 19.2688 17.2399C19.4354 17.3512 19.5653 17.5094 19.642 17.6946C19.7187 17.8797 19.7387 18.0835 19.6997 18.28C19.6606 18.4766 19.5641 18.6571 19.4224 18.7988C19.2806 18.9405 19.1001 19.037 18.9036 19.0761C18.707 19.1152 18.5033 19.0951 18.3181 19.0184C18.133 18.9418 17.9747 18.8119 17.8634 18.6453C17.7521 18.4786 17.6927 18.2827 17.6927 18.0823C17.6927 17.8136 17.7994 17.5559 17.9894 17.3659C18.1794 17.1759 18.4372 17.0691 18.7059 17.0691V17.0691Z" fill="white"/>
</g>
<path d="M63.2656 22.293C63.1602 23.1953 62.8262 23.8926 62.2637 24.3848C61.7051 24.873 60.9609 25.1172 60.0312 25.1172C59.0234 25.1172 58.2148 24.7559 57.6055 24.0332C57 23.3105 56.6973 22.3438 56.6973 21.1328V20.3125C56.6973 19.5195 56.8379 18.8223 57.1191 18.2207C57.4043 17.6191 57.8066 17.1582 58.3262 16.8379C58.8457 16.5137 59.4473 16.3516 60.1309 16.3516C61.0371 16.3516 61.7637 16.6055 62.3105 17.1133C62.8574 17.6172 63.1758 18.3164 63.2656 19.2109H62.1348C62.0371 18.5312 61.8242 18.0391 61.4961 17.7344C61.1719 17.4297 60.7168 17.2773 60.1309 17.2773C59.4121 17.2773 58.8477 17.543 58.4375 18.0742C58.0312 18.6055 57.8281 19.3613 57.8281 20.3418V21.168C57.8281 22.0938 58.0215 22.8301 58.4082 23.377C58.7949 23.9238 59.3359 24.1973 60.0312 24.1973C60.6562 24.1973 61.1348 24.0566 61.4668 23.7754C61.8027 23.4902 62.0254 22.9961 62.1348 22.293H63.2656ZM73.1691 21.0098C73.1691 21.8457 73.0285 22.5762 72.7473 23.2012C72.466 23.8223 72.0676 24.2969 71.552 24.625C71.0363 24.9531 70.4348 25.1172 69.7473 25.1172C69.0754 25.1172 68.4797 24.9531 67.9602 24.625C67.4406 24.293 67.0363 23.8223 66.7473 23.2129C66.4621 22.5996 66.3156 21.8906 66.3078 21.0859V20.4707C66.3078 19.6504 66.4504 18.9258 66.7355 18.2969C67.0207 17.668 67.423 17.1875 67.9426 16.8555C68.466 16.5195 69.0637 16.3516 69.7355 16.3516C70.4191 16.3516 71.0207 16.5176 71.5402 16.8496C72.0637 17.1777 72.466 17.6562 72.7473 18.2852C73.0285 18.9102 73.1691 19.6387 73.1691 20.4707V21.0098ZM72.05 20.459C72.05 19.4473 71.8469 18.6719 71.4406 18.1328C71.0344 17.5898 70.466 17.3184 69.7355 17.3184C69.0246 17.3184 68.4641 17.5898 68.0539 18.1328C67.6477 18.6719 67.4387 19.4219 67.427 20.3828V21.0098C67.427 21.9902 67.632 22.7617 68.0422 23.3242C68.4563 23.8828 69.0246 24.1621 69.7473 24.1621C70.4738 24.1621 71.0363 23.8984 71.4348 23.3711C71.8332 22.8398 72.0383 22.0801 72.05 21.0918V20.459ZM83.2133 25H82.0824L77.7875 18.4258V25H76.6566V16.4688H77.7875L82.0941 23.0723V16.4688H83.2133V25ZM89.8355 23.5059L92.273 16.4688H93.5035L90.3395 25H89.3434L86.1852 16.4688H87.4098L89.8355 23.5059ZM101.274 21.0566H97.577V24.0801H101.872V25H96.452V16.4688H101.813V17.3945H97.577V20.1367H101.274V21.0566ZM108.201 21.5488H106.197V25H105.066V16.4688H107.891C108.852 16.4688 109.59 16.6875 110.105 17.125C110.625 17.5625 110.885 18.1992 110.885 19.0352C110.885 19.5664 110.74 20.0293 110.451 20.4238C110.166 20.8184 109.768 21.1133 109.256 21.3086L111.26 24.9297V25H110.053L108.201 21.5488ZM106.197 20.6289H107.926C108.484 20.6289 108.928 20.4844 109.256 20.1953C109.588 19.9062 109.754 19.5195 109.754 19.0352C109.754 18.5078 109.596 18.1035 109.279 17.8223C108.967 17.541 108.514 17.3984 107.92 17.3945H106.197V20.6289ZM120.566 23.8809C120.277 24.2949 119.872 24.6055 119.353 24.8125C118.837 25.0156 118.236 25.1172 117.548 25.1172C116.853 25.1172 116.236 24.9551 115.696 24.6309C115.157 24.3027 114.739 23.8379 114.443 23.2363C114.15 22.6348 113.999 21.9375 113.991 21.1445V20.4004C113.991 19.1152 114.29 18.1191 114.888 17.4121C115.489 16.7051 116.333 16.3516 117.419 16.3516C118.31 16.3516 119.027 16.5801 119.57 17.0371C120.112 17.4902 120.445 18.1348 120.566 18.9707H119.441C119.23 17.8418 118.558 17.2773 117.425 17.2773C116.671 17.2773 116.099 17.543 115.708 18.0742C115.321 18.6016 115.126 19.3672 115.122 20.3711V21.0684C115.122 22.0254 115.341 22.7871 115.779 23.3535C116.216 23.916 116.808 24.1973 117.554 24.1973C117.976 24.1973 118.345 24.1504 118.661 24.0566C118.978 23.9629 119.239 23.8047 119.446 23.582V21.666H117.472V20.752H120.566V23.8809ZM129.069 21.0566H125.371V24.0801H129.666V25H124.246V16.4688H129.608V17.3945H125.371V20.1367H129.069V21.0566ZM139.423 25H138.293L133.998 18.4258V25H132.867V16.4688H133.998L138.304 23.0723V16.4688H139.423V25ZM149.497 22.293C149.391 23.1953 149.057 23.8926 148.495 24.3848C147.936 24.873 147.192 25.1172 146.262 25.1172C145.255 25.1172 144.446 24.7559 143.837 24.0332C143.231 23.3105 142.929 22.3438 142.929 21.1328V20.3125C142.929 19.5195 143.069 18.8223 143.35 18.2207C143.636 17.6191 144.038 17.1582 144.557 16.8379C145.077 16.5137 145.679 16.3516 146.362 16.3516C147.268 16.3516 147.995 16.6055 148.542 17.1133C149.089 17.6172 149.407 18.3164 149.497 19.2109H148.366C148.268 18.5312 148.055 18.0391 147.727 17.7344C147.403 17.4297 146.948 17.2773 146.362 17.2773C145.643 17.2773 145.079 17.543 144.669 18.0742C144.262 18.6055 144.059 19.3613 144.059 20.3418V21.168C144.059 22.0938 144.253 22.8301 144.639 23.377C145.026 23.9238 145.567 24.1973 146.262 24.1973C146.887 24.1973 147.366 24.0566 147.698 23.7754C148.034 23.4902 148.257 22.9961 148.366 22.293H149.497ZM157.66 21.0566H153.963V24.0801H158.258V25H152.838V16.4688H158.199V17.3945H153.963V20.1367H157.66V21.0566ZM61.6953 32.2324H58.1152V36H56.9902V27.4688H62.2754V28.3945H58.1152V31.3125H61.6953V32.2324ZM71.9855 32.0098C71.9855 32.8457 71.8449 33.5762 71.5637 34.2012C71.2824 34.8223 70.884 35.2969 70.3684 35.625C69.8527 35.9531 69.2512 36.1172 68.5637 36.1172C67.8918 36.1172 67.2961 35.9531 66.7766 35.625C66.257 35.293 65.8527 34.8223 65.5637 34.2129C65.2785 33.5996 65.132 32.8906 65.1242 32.0859V31.4707C65.1242 30.6504 65.2668 29.9258 65.552 29.2969C65.8371 28.668 66.2395 28.1875 66.759 27.8555C67.2824 27.5195 67.8801 27.3516 68.552 27.3516C69.2355 27.3516 69.8371 27.5176 70.3566 27.8496C70.8801 28.1777 71.2824 28.6562 71.5637 29.2852C71.8449 29.9102 71.9855 30.6387 71.9855 31.4707V32.0098ZM70.8664 31.459C70.8664 30.4473 70.6633 29.6719 70.257 29.1328C69.8508 28.5898 69.2824 28.3184 68.552 28.3184C67.841 28.3184 67.2805 28.5898 66.8703 29.1328C66.4641 29.6719 66.2551 30.4219 66.2434 31.3828V32.0098C66.2434 32.9902 66.4484 33.7617 66.8586 34.3242C67.2727 34.8828 67.841 35.1621 68.5637 35.1621C69.2902 35.1621 69.8527 34.8984 70.2512 34.3711C70.6496 33.8398 70.8547 33.0801 70.8664 32.0918V31.459ZM82.0355 32.0098C82.0355 32.8457 81.8949 33.5762 81.6137 34.2012C81.3324 34.8223 80.934 35.2969 80.4184 35.625C79.9027 35.9531 79.3012 36.1172 78.6137 36.1172C77.9418 36.1172 77.3461 35.9531 76.8266 35.625C76.307 35.293 75.9027 34.8223 75.6137 34.2129C75.3285 33.5996 75.182 32.8906 75.1742 32.0859V31.4707C75.1742 30.6504 75.3168 29.9258 75.602 29.2969C75.8871 28.668 76.2895 28.1875 76.809 27.8555C77.3324 27.5195 77.9301 27.3516 78.602 27.3516C79.2855 27.3516 79.8871 27.5176 80.4066 27.8496C80.9301 28.1777 81.3324 28.6562 81.6137 29.2852C81.8949 29.9102 82.0355 30.6387 82.0355 31.4707V32.0098ZM80.9164 31.459C80.9164 30.4473 80.7133 29.6719 80.307 29.1328C79.9008 28.5898 79.3324 28.3184 78.602 28.3184C77.891 28.3184 77.3305 28.5898 76.9203 29.1328C76.5141 29.6719 76.3051 30.4219 76.2934 31.3828V32.0098C76.2934 32.9902 76.4984 33.7617 76.9086 34.3242C77.3227 34.8828 77.891 35.1621 78.6137 35.1621C79.3402 35.1621 79.9027 34.8984 80.3012 34.3711C80.6996 33.8398 80.9047 33.0801 80.9164 32.0918V31.459ZM85.523 36V27.4688H87.9312C88.6734 27.4688 89.3297 27.6328 89.9 27.9609C90.4703 28.2891 90.9098 28.7559 91.2184 29.3613C91.5309 29.9668 91.6891 30.6621 91.693 31.4473V31.9922C91.693 32.7969 91.5367 33.502 91.2242 34.1074C90.9156 34.7129 90.4723 35.1777 89.8941 35.502C89.3199 35.8262 88.65 35.9922 87.8844 36H85.523ZM86.648 28.3945V35.0801H87.8316C88.6988 35.0801 89.3727 34.8105 89.8531 34.2715C90.3375 33.7324 90.5797 32.9648 90.5797 31.9688V31.4707C90.5797 30.502 90.3512 29.75 89.8941 29.2148C89.441 28.6758 88.7965 28.4023 87.9605 28.3945H86.648Z" fill="url(#paint1_radial_113:21)"/>
<defs>
<radialGradient id="paint0_radial_113:21" cx="0" cy="0" r="1" gradientUnits="userSpaceOnUse" gradientTransform="translate(26.5 26.5) rotate(90) scale(26.5)">
<stop offset="0.0416667" stop-color="#F51515"/>
<stop offset="1" stop-color="#FF4545"/>
</radialGradient>
<radialGradient id="paint1_radial_113:21" cx="0" cy="0" r="1" gradientUnits="userSpaceOnUse" gradientTransform="translate(107.5 26) rotate(90) scale(11 51.5)">
<stop offset="0.0416667" stop-color="#F51515"/>
<stop offset="1" stop-color="#FF4545"/>
</radialGradient>
<clipPath id="clip0_113:21">
<rect width="32.4235" height="32.4235" fill="white" transform="translate(10.6 9.97647)"/>
</clipPath>
</defs>
</svg>
